<svg width="24" height="24" viewBox="0 0 24 24" fill="none" xmlns="http://www.w3.org/2000/svg">
<path d="M20 4L18 3.99902C20.4288 5.82345 22 8.72845 22 12C22 17.5228 17.5228 22 12 22C6.47715 22 2 17.5228 2 12C2 7.4107 5.09159 3.54345 9.30566 2.36719L9.84473 4.29395C6.47337 5.23489 4 8.32849 4 12C4 16.4183 7.58172 20 12 20C16.4183 20 20 16.4183 20 12C20 9.03918 18.3918 6.45366 16.001 5.07031L16 8H14V2H20V4ZM9.11133 9C10.3881 9.00012 11.245 9.70701 11.2451 10.7578C11.2451 11.2917 11.0138 11.7305 10.5869 12.0195C11.0899 12.3075 11.373 12.7693 11.373 13.3193C11.3728 14.548 10.226 15.1093 9.15918 15.1094C8.3581 15.1094 7.67202 14.8485 7.20508 14.373L7.08301 14.2383L7 14.1367L7.8457 13.208L7.95703 13.3281C8.24103 13.6331 8.67618 13.8164 9.11914 13.8164L9.22559 13.8125L9.36719 13.7949C9.62209 13.7517 9.94517 13.6219 9.94531 13.2393C9.94531 12.8451 9.51102 12.6853 9.10059 12.6631L8.99902 12.6602H8.20117V11.4004H9.00684C9.40584 11.4004 9.83301 11.2519 9.83301 10.8379C9.83293 10.429 9.41366 10.2842 9.05469 10.2842C8.54834 10.2843 8.23029 10.5712 8.08789 10.7402L7.94238 10.9287L7.0498 10.0371L7.12695 9.93262C7.442 9.50666 8.04252 9 9.11133 9ZM14.4629 9.10449C16.2937 9.10457 17.5252 10.289 17.5254 12.0537C17.5254 13.7557 16.3798 14.9191 14.6562 15L14.4629 15.0039H12.0088V9.10449H14.4629ZM13.4209 13.6562H14.4551C15.4728 13.6561 16.0566 13.0716 16.0566 12.0537C16.0565 11.0311 15.4727 10.4445 14.4551 10.4443H13.4209V13.6562Z" fill="#191919"/>
</svg>
