<svg width="24" height="24" viewBox="0 0 24 24" fill="none" xmlns="http://www.w3.org/2000/svg">
<path d="M21 21H3V19H5.29102C6.15166 16.1087 8.82909 14 12 14C15.1708 14 17.8482 16.1088 18.709 19H19V5H5V17H3V3H21V21ZM12 16C9.96527 16 8.21419 17.2155 7.43359 18.96L7.41602 19H16.584L16.5781 18.9863C15.8303 17.2886 14.1658 16.0885 12.2178 16.0049L12 16ZM12 7C13.6569 7 15 8.34315 15 10C15 11.6569 13.6569 13 12 13C10.3431 13 9 11.6569 9 10C9 8.34315 10.3431 7 12 7ZM12 9C11.4477 9 11 9.44772 11 10C11 10.5523 11.4477 11 12 11C12.5523 11 13 10.5523 13 10C13 9.44772 12.5523 9 12 9Z" fill="#191919"/>
</svg>
