<svg width="24" height="24" viewBox="0 0 24 24" fill="none" xmlns="http://www.w3.org/2000/svg">
<path d="M21.9028 21.8998L20.4888 23.3139L17.3872 20.2133C15.8859 21.3356 14.0221 22.0004 12.0034 22.0004C9.62317 22.0003 7.45857 21.0757 5.84912 19.5668L4.00342 21.4145L2.58936 20.0004L4.54736 18.0424C3.74936 16.8646 3.22358 15.4873 3.05908 14.0014H5.07471C5.56051 17.3929 8.47752 20.0003 12.0034 20.0004C13.4694 20.0004 14.8301 19.549 15.9546 18.7787L11.1753 14.0004H7.00342V12.1996H9.37549L6.2251 9.04922C5.63321 9.91327 5.2297 10.9168 5.07471 12.0004H3.05811C3.23858 10.3673 3.85665 8.86585 4.7915 7.61563L3.71826 6.54239L3.00342 7.25723L1.58936 5.84219L2.3042 5.12833L0.689941 3.51505L2.104 2.10098L21.9028 21.8998ZM12.0034 4.0004C16.974 4.0004 21.0034 8.02983 21.0034 13.0004C21.0034 14.4998 20.6364 15.9133 19.9878 17.1566L18.4839 15.6518C18.8188 14.834 19.0034 13.9387 19.0034 13.0004C19.0034 9.1344 15.8694 6.0004 12.0034 6.0004C11.0647 6.00043 10.1691 6.18473 9.35107 6.51993L7.84717 5.01505C9.09043 4.36655 10.5041 4.00043 12.0034 4.0004ZM13.0015 10.1713L11.2017 8.37149L11.2026 8.0004H13.0024L13.0015 10.1713ZM22.4175 5.84219L21.0034 7.25723L16.7612 3.01407L18.1753 1.60001L22.4175 5.84219ZM7.24658 3.01407L6.54639 3.71426L5.13232 2.3002L5.83252 1.60001L7.24658 3.01407Z" fill="#191919"/>
</svg>
