<svg width="24" height="24" viewBox="0 0 24 24" fill="none" xmlns="http://www.w3.org/2000/svg">
<path d="M11.9998 4.0004C16.9703 4.0004 20.9998 8.02983 20.9998 13.0004C20.9997 14.8686 20.4303 16.6041 19.4558 18.0424L21.4138 20.0004L19.9998 21.4145L18.1531 19.5678C16.5437 21.0762 14.3796 22.0004 11.9998 22.0004C9.61948 22.0004 7.45493 21.0758 5.84546 19.5668L3.99976 21.4145L2.58569 20.0004L4.5437 18.0424C3.7457 16.8646 3.21992 15.4873 3.05542 14.0014H5.07104C5.55686 17.3929 8.47383 20.0003 11.9998 20.0004C15.8656 20.0004 18.9995 16.8662 18.9998 13.0004C18.9998 9.1344 15.8657 6.0004 11.9998 6.0004C8.47335 6.00047 5.55627 8.60815 5.07104 12.0004H3.05444C3.55174 7.50035 7.36717 4.00047 11.9998 4.0004ZM12.8015 12.1996H17.0017V14.0004H11.0017V8.0004H12.8015V12.1996ZM7.24292 3.01407L2.99976 7.25723L1.58569 5.84219L5.82788 1.60001L7.24292 3.01407ZM22.4138 5.84219L20.9998 7.25723L16.7576 3.01407L18.1716 1.60001L22.4138 5.84219Z" fill="#191919"/>
</svg>
