<svg width="24" height="24" viewBox="0 0 24 24" fill="none" xmlns="http://www.w3.org/2000/svg">
<path d="M11.9995 2C17.5224 2 21.9995 6.47715 21.9995 12C21.9995 17.5228 17.5224 22 11.9995 22C6.81473 21.9998 2.55154 18.0536 2.04932 13.001L4.06201 13C4.24419 14.4605 4.82016 15.7989 5.68018 16.9053L16.9058 5.67969C15.5511 4.62668 13.8482 4 11.9995 4C7.92009 4.00021 4.5541 7.05383 4.06201 11H2.04932C2.55107 5.94686 6.81439 2.00021 11.9995 2ZM7.09424 18.3203C8.44879 19.3732 10.151 19.9999 11.9995 20C16.4178 20 19.9995 16.4183 19.9995 12C19.9995 10.1514 19.3728 8.44937 18.3198 7.09473L7.09424 18.3203Z" fill="#191919"/>
</svg>
