<svg width="24" height="24" viewBox="0 0 24 24" fill="none" xmlns="http://www.w3.org/2000/svg">
<path d="M16.5996 5H22V21H2V19H20V7H15.6387L14.0391 5H9.95996L8.36133 7H4V17H2V5H7.40039L9 3H15L16.5996 5ZM12 8.00391C14.7604 8.00391 16.998 10.2416 16.998 13.002C16.998 15.7623 14.7603 18 12 18C9.23965 18 7.00196 15.7623 7.00195 13.002C7.00195 10.2416 9.23964 8.00391 12 8.00391ZM12 10.0039C10.3442 10.0039 9.00195 11.3462 9.00195 13.002C9.00196 14.6577 10.3442 16 12 16C13.6558 16 14.998 14.6577 14.998 13.002C14.998 11.3462 13.6558 10.0039 12 10.0039Z" fill="#191919"/>
</svg>
