<svg width="24" height="24" viewBox="0 0 24 24" fill="none" xmlns="http://www.w3.org/2000/svg">
<path d="M6 4H21V14H6V16H19C20.5975 16 21.9036 17.2487 21.9951 18.8232L22 19C22 20.6569 20.6569 22 19 22C17.3431 22 16 20.6569 16 19C16 18.6494 16.0604 18.3128 16.1709 18H7.8291C7.93963 18.3128 8 18.6494 8 19C8 20.6569 6.65685 22 5 22C3.34315 22 2 20.6569 2 19C2 17.6938 2.83484 16.5828 4 16.1709V12H19V6H6V10H4V4H2V2H6V4ZM5 18C4.44772 18 4 18.4477 4 19C4 19.5523 4.44772 20 5 20C5.55228 20 6 19.5523 6 19C6 18.4477 5.55228 18 5 18ZM19 18C18.4477 18 18 18.4477 18 19C18 19.5523 18.4477 20 19 20C19.5523 20 20 19.5523 20 19C20 18.4477 19.5523 18 19 18Z" fill="#191919"/>
</svg>
