<svg width="24" height="24" viewBox="0 0 24 24" fill="none" xmlns="http://www.w3.org/2000/svg">
<path d="M12 2C17.5228 2 22 6.47715 22 12C22 17.5228 17.5228 22 12 22H2V20L3.99984 18.0008C2.9325 16.5801 2.23477 14.8658 2.04945 13.0008L4.0619 13.001C4.22123 14.28 4.6846 15.4869 5.41073 16.5384L5.59886 16.7995L6.64177 18.1876L4.828 20H12C16.3349 20 19.8645 16.5522 19.9962 12.2492L20 12C20 7.58172 16.4183 4 12 4C7.92037 4 4.55396 7.05371 4.06189 11L2.04939 10.9999C2.55116 5.94662 6.81469 2 12 2Z" fill="#191919"/>
</svg>
