<svg width="24" height="24" viewBox="0 0 24 24" fill="none" xmlns="http://www.w3.org/2000/svg">
<path d="M12 2C14.0501 2 15.8104 3.23444 16.582 5H21V7H19.8232L18.5 22H5.5L5.32324 20H16.668L17.8154 7H6.18359L7.1543 18H5.14746L4.17676 7H3V5H7.41699C8.18863 3.23428 9.94982 2 12 2ZM15.4648 10.8076L13.2725 13L15.4648 15.1924L14.1924 16.4648L12 14.2725L9.80762 16.4648L8.53516 15.1924L10.7275 13L8.53516 10.8076L9.80762 9.53516L12 11.7275L14.1924 9.53516L15.4648 10.8076ZM12 4C11.1807 4 10.4379 4.32892 9.89648 4.86133L9.7627 5H14.2363L14.1348 4.89258C13.629 4.38068 12.9409 4.04957 12.1777 4.00488L12 4Z" fill="#191919"/>
</svg>
