<svg width="24" height="24" viewBox="0 0 24 24" fill="none" xmlns="http://www.w3.org/2000/svg">
<path d="M21.8992 21.8994L20.4851 23.3135L17.5125 20.3408C15.9317 21.3877 14.0378 22 11.9998 22C6.8146 21.9998 2.55128 18.0532 2.04956 13H4.06519C4.55745 16.946 7.92047 19.9998 11.9998 20C13.4832 20 14.8713 19.5943 16.0623 18.8906L12.5886 15.417L7.87476 17.7754L6.22437 16.125L8.58179 11.4102L5.10913 7.9375C4.56683 8.85627 4.20327 9.89311 4.06519 11H2.04956C2.21411 9.34274 2.78439 7.80536 3.65796 6.48633L0.686279 3.51465L2.10034 2.10059L21.8992 21.8994ZM11.9998 2C17.5225 2.0001 21.9998 6.47721 21.9998 12C21.9998 14.038 21.3874 15.9318 20.3406 17.5127L18.8894 16.0615C19.5932 14.8708 19.9998 13.4834 19.9998 12C19.9998 7.58178 16.4179 4.0001 11.9998 4C10.516 4.00008 9.12771 4.40521 7.93726 5.10938L6.48608 3.6582C8.06699 2.61133 9.96175 2.00008 11.9998 2ZM8.60034 15.3994L11.2458 14.0742L9.92358 12.752L8.60034 15.3994ZM17.7751 7.875L15.4167 12.5889L14.075 11.2471L15.4001 8.59961L12.7517 9.92383L11.4099 8.58203L16.1248 6.22461L17.7751 7.875Z" fill="#191919"/>
</svg>
