<svg width="24" height="24" viewBox="0 0 24 24" fill="none" xmlns="http://www.w3.org/2000/svg">
<path d="M17.0498 3C18.5718 3 20.0952 3.58145 21.2569 4.74316C23.5812 7.0666 23.5813 10.8347 21.2569 13.1592L20.4151 14L12 22.416L10.4746 20.8906L13.792 17.5723L19.7315 11.6328C20.4476 10.9166 20.8437 9.96395 20.8438 8.95117C20.8438 7.93838 20.4476 6.98477 19.7315 6.26855C19.0152 5.55233 18.0616 5.15723 17.0498 5.15723C16.037 5.15724 15.0834 5.55234 14.3672 6.26855L13.5244 7.10938L12 8.63574L10.4746 7.10938L9.63284 6.26855C8.91553 5.55233 7.96416 5.15723 6.95022 5.15723C5.93744 5.15728 4.98378 5.55238 4.26761 6.26855C3.55152 6.98476 3.15725 7.93842 3.15725 8.95117C3.15731 9.96395 3.55143 10.9166 4.26761 11.6328L5.11038 12.4746L10.586 17.9512L9.06057 19.4766L3.58499 14L2.74222 13.1592C0.418863 10.8347 0.419009 7.06661 2.74222 4.74316C3.90387 3.58151 5.42723 3.00005 6.95022 3C8.47329 3 9.99652 3.58145 11.1582 4.74316L12 5.58398L12.8418 4.74316C14.0035 3.58147 15.5268 3.00002 17.0498 3Z" fill="#191919"/>
</svg>
