<svg width="24" height="24" viewBox="0 0 24 24" fill="none" xmlns="http://www.w3.org/2000/svg">
<path d="M21.8992 21.8993L20.4851 23.3134L17.1707 19.9999H6.99976C4.02716 19.9998 1.55918 17.8381 1.08276 15.0009H3.12573C3.55408 16.6637 5.02556 17.9078 6.80054 17.995L6.99976 17.9999H15.1707L7.03296 9.86121L7.02515 9.87976L6.06323 10.1093C4.61061 10.4571 3.49124 11.587 3.12671 12.9999L1.08276 13.0009C1.4693 10.695 3.17113 8.83517 5.39038 8.21863L0.686279 3.51453L2.10034 2.10046L21.8992 21.8993ZM11.9998 3.99988C15.2229 3.99988 17.9371 6.17867 18.7507 9.14343C21.1854 9.70947 22.9997 11.8926 22.9998 14.4999C22.9998 15.9772 22.4173 17.3184 21.4695 18.3065L21.3025 18.4735L19.8875 17.0594C20.5306 16.4584 20.9457 15.6184 20.9949 14.6864L20.9998 14.4999C20.9997 12.9295 19.9563 11.5687 18.4841 11.1395L18.2986 11.0907L17.1375 10.8212L16.822 9.67273C16.2513 7.59288 14.3951 6.10181 12.2253 6.00476L11.9998 5.99988C11.0981 5.99992 10.2404 6.2406 9.4978 6.6698L8.04956 5.22058C9.17384 4.45062 10.5341 3.99993 11.9998 3.99988Z" fill="#191919"/>
</svg>
