<svg width="24" height="24" viewBox="0 0 24 24" fill="none" xmlns="http://www.w3.org/2000/svg">
<path d="M11.9998 4C15.2229 4 17.9371 6.17879 18.7507 9.14355C21.1855 9.7096 22.9998 11.8927 22.9998 14.5C22.9998 17.3688 20.8036 19.7246 18.0007 19.9775L17.9998 20H6.99976C4.02716 19.9999 1.55921 17.8382 1.08276 15.001H3.12573C3.55411 16.6638 5.02559 17.9079 6.80054 17.9951L6.99976 18H17.6541L17.821 17.9854C19.5512 17.8291 20.9036 16.4165 20.9949 14.6865L20.9998 14.5C20.9998 12.9296 19.9563 11.5688 18.4841 11.1396L18.2976 11.0908L17.1375 10.8213L16.822 9.67285C16.2513 7.593 14.3951 6.10194 12.2253 6.00488L11.9998 6C10.0794 6.00007 8.35893 7.09248 7.52222 8.77148L7.42651 8.97559L7.02515 9.87988L6.06323 10.1094C4.61057 10.4572 3.49123 11.587 3.12671 13L1.08276 13.001C1.48128 10.6236 3.27805 8.72042 5.59839 8.16504C6.68613 5.71191 9.14293 4.00007 11.9998 4ZM12.9988 13.2266L14.8992 11.3281L16.1716 12.6006L11.9998 16.7725L7.82788 12.6006L9.10034 11.3281L10.9988 13.2256L10.9998 8.5H12.9998L12.9988 13.2266Z" fill="#191919"/>
</svg>
