<svg width="24" height="24" viewBox="0 0 24 24" fill="none" xmlns="http://www.w3.org/2000/svg">
<path d="M19.4246 2.45404C20.9347 3.96407 20.985 6.38103 19.5756 7.95152L19.4246 8.1109L12 15.5355C11.0237 16.5118 9.44078 16.5118 8.46447 15.5355C7.52721 14.5983 7.48972 13.102 8.352 12.12L8.46447 12L13.7678 6.69668L15.182 8.1109L9.87868 13.4142C9.68342 13.6095 9.68342 13.926 9.87868 14.1213C10.0522 14.2949 10.3217 14.3142 10.5165 14.1792L10.5858 14.1213L18.0104 6.69668L18.1121 6.58726C18.7898 5.80152 18.756 4.6138 18.0104 3.86826C17.2705 3.12832 16.095 3.08937 15.3092 3.75142L15.182 3.86826L4.92893 14.1213C3.5621 15.4881 3.5621 17.7042 4.92893 19.0711C6.25021 20.3923 8.36505 20.4364 9.73923 19.2032L9.87868 19.0711L19.4246 9.52511L20.8388 10.9393L11.2929 20.4853C9.14501 22.6331 5.6626 22.6331 3.51472 20.4853C1.41923 18.3898 1.36812 15.0241 3.36139 12.8666L3.51472 12.7071L13.7678 2.45404L13.9124 2.31634C15.4825 0.893381 17.9099 0.939283 19.4246 2.45404Z" fill="#191919"/>
</svg>
