<svg width="24" height="24" viewBox="0 0 24 24" fill="none" xmlns="http://www.w3.org/2000/svg">
<path d="M12 4C15.2231 4 17.9374 6.1788 18.751 9.14355C21.1857 9.70961 23 11.8927 23 14.5C23 17.3687 20.8038 19.7245 18.001 19.9775L18 20H7C4.02714 20 1.56117 17.8375 1.08496 15H3.12598C3.55415 16.6633 5.02554 17.9078 6.80078 17.9951L7 18H17.6543L17.8213 17.9854C19.5514 17.829 20.9039 16.4164 20.9951 14.6865L21 14.5C21 12.9296 19.9565 11.5688 18.4844 11.1396L18.2979 11.0908L17.1377 10.8213L16.8223 9.67285C16.2515 7.59302 14.3953 6.10195 12.2256 6.00488L12 6C10.0796 6.00002 8.3592 7.09244 7.52246 8.77148L7.42676 8.97559L7.02539 9.87988L6.06348 10.1094C4.61076 10.4572 3.49146 11.5869 3.12695 13H1.08398C1.4829 10.6232 3.27863 8.72036 5.59863 8.16504C6.68639 5.71187 9.14312 4.00002 12 4ZM16.1719 12.3994L14.8994 13.6719L12.999 11.7715L13 16.5H11L10.999 11.7734L9.10059 13.6719L7.82812 12.3994L12 8.22754L16.1719 12.3994Z" fill="#191919"/>
</svg>
