<svg width="24" height="24" viewBox="0 0 24 24" fill="none" xmlns="http://www.w3.org/2000/svg">
<path d="M8 15C9.30588 15 10.4169 15.8344 10.829 16.9991L21 17V19L10.8293 18.9999C10.4175 20.1651 9.30625 21 8 21C6.69412 21 5.58311 20.1656 5.17102 19.0009L3 19V17L5.17067 17.0001C5.58249 15.8349 6.69375 15 8 15ZM8 17C7.44772 17 7 17.4477 7 18C7 18.5523 7.44772 19 8 19C8.55228 19 9 18.5523 9 18C9 17.4477 8.55228 17 8 17ZM16 9C17.3063 9 18.4175 9.83485 18.8293 11.0001L21 11V13L18.829 13.0009C18.4169 14.1656 17.3059 15 16 15C14.6941 15 13.5831 14.1656 13.171 13.0009L3 13V11L13.1707 11.0001C13.5825 9.83485 14.6937 9 16 9ZM16 11C15.4477 11 15 11.4477 15 12C15 12.5523 15.4477 13 16 13C16.5523 13 17 12.5523 17 12C17 11.4477 16.5523 11 16 11ZM8 3C9.30588 3 10.4169 3.83438 10.829 4.9991L21 5V7L10.8293 6.99991C10.4175 8.16515 9.30625 9 8 9C6.69412 9 5.58311 8.16562 5.17102 7.0009L3 7V5L5.17067 5.00009C5.58249 3.83485 6.69375 3 8 3ZM8 5C7.44772 5 7 5.44772 7 6C7 6.55228 7.44772 7 8 7C8.55228 7 9 6.55228 9 6C9 5.44772 8.55228 5 8 5Z" fill="#191919"/>
</svg>
