<svg width="24" height="24" viewBox="0 0 24 24" fill="none" xmlns="http://www.w3.org/2000/svg">
<path d="M21.8992 21.8994L20.4851 23.3135L16.7908 19.6201C15.6699 20.3263 14.3826 20.7924 13.0007 20.9453L12.9998 23H10.9998L11.0007 20.9453C6.82931 20.4843 3.51701 17.1722 3.05542 13.001L0.999756 13V11H3.05444C3.20727 9.61745 3.67396 8.32929 4.38062 7.20801L0.686279 3.51465L2.10034 2.10059L21.8992 21.8994ZM5.84155 8.66895C5.30475 9.65939 4.99976 10.7943 4.99976 12C4.99976 15.8659 8.13387 18.9999 11.9998 19C13.2055 19 14.3404 18.695 15.3308 18.1582L5.84155 8.66895ZM13.0007 3.05469C17.172 3.51613 20.4839 6.82862 20.9451 11H22.9998V13L20.9451 13.001C20.7921 14.3831 20.3263 15.671 19.6199 16.792L18.1589 15.3301C18.6955 14.3398 18.9998 13.2054 18.9998 12C18.9998 8.13401 15.8657 5 11.9998 5C10.7942 5.00004 9.66001 5.3051 8.66968 5.8418L7.20776 4.37988C8.32906 3.67326 9.61816 3.20748 11.0007 3.05469L10.9998 1H12.9998L13.0007 3.05469Z" fill="#191919"/>
</svg>
