<svg width="24" height="24" viewBox="0 0 24 24" fill="none" xmlns="http://www.w3.org/2000/svg">
<path d="M13 3.05664C17.1715 3.51786 20.4821 6.82853 20.9434 11H23V13H20.9434C20.4821 17.1714 17.1714 20.4811 13 20.9424V23H11V20.9424C6.82858 20.4811 3.51786 17.1714 3.05664 13H1V11H3.05664C3.51786 6.82853 6.82853 3.51786 11 3.05664V1H13V3.05664ZM12 5C8.13401 5 5 8.13401 5 12C5 15.866 8.13401 19 12 19C15.866 19 19 15.866 19 12C19 8.13401 15.866 5 12 5ZM12 8C14.2091 8 16 9.79086 16 12C16 14.2091 14.2091 16 12 16C9.79086 16 8 14.2091 8 12C8 9.79086 9.79086 8 12 8ZM12 10C10.8954 10 10 10.8954 10 12C10 13.1046 10.8954 14 12 14C13.1046 14 14 13.1046 14 12C14 10.8954 13.1046 10 12 10Z" fill="#191919"/>
</svg>
