<svg width="24" height="24" viewBox="0 0 24 24" fill="none" xmlns="http://www.w3.org/2000/svg">
<path d="M12 18V17C12 14.8578 10.3161 13.1089 8.19968 13.0049L8.00004 13C6.13608 13 4.56989 14.2749 4.12597 16.0003L2.08297 16.0002C2.55897 13.1624 5.02698 11 8.00004 11C9.53669 11 10.9384 11.5777 11.9999 12.5277C13.0608 11.578 14.4629 11 16 11C19.3137 11 22 13.6863 22 17V20H2.00004L1.99927 18H12ZM16 13C14.9352 13 13.9675 13.4161 13.2507 14.0946C13.7285 14.9563 14 15.9464 14 17V18H20V17C20 14.8578 18.3161 13.1089 16.1997 13.0049L16 13ZM16 4C17.6569 4 19 5.34315 19 7C19 8.65685 17.6569 10 16 10C14.3432 10 13 8.65685 13 7C13 5.34315 14.3432 4 16 4ZM8.00004 4C9.6569 4 11 5.34315 11 7C11 8.65685 9.6569 10 8.00004 10C6.34319 10 5.00004 8.65685 5.00004 7C5.00004 5.34315 6.34319 4 8.00004 4ZM16 6C15.4478 6 15 6.44772 15 7C15 7.55228 15.4478 8 16 8C16.5523 8 17 7.55228 17 7C17 6.44772 16.5523 6 16 6ZM8.00004 6C7.44776 6 7.00004 6.44772 7.00004 7C7.00004 7.55228 7.44776 8 8.00004 8C8.55233 8 9.00004 7.55228 9.00004 7C9.00004 6.44772 8.55233 6 8.00004 6Z" fill="#191919"/>
</svg>
