<svg width="24" height="24" viewBox="0 0 24 24" fill="none" xmlns="http://www.w3.org/2000/svg">
<path d="M12 2C15.7792 2 18.8688 4.9269 18.9961 8.59766L19 8.83301V10C21.2091 10 23 11.7909 23 14C23 16.2091 21.2091 18 19 18V22H12V20H17V8.83301C16.9998 6.17018 14.7675 4 12 4C9.52766 4 7.48348 5.73212 7.0752 8H5.05371C5.47512 4.6144 8.42839 2 12 2ZM7 18H5C2.79086 18 1 16.2091 1 14C1 11.7909 2.79086 10 5 10H7V18ZM4.85059 12.0059C3.81581 12.0823 3 12.9457 3 14C3 15.0543 3.81581 15.9177 4.85059 15.9941L5 16V12L4.85059 12.0059ZM19 16L19.1494 15.9941C20.1842 15.9177 21 15.0543 21 14C21 12.9457 20.1842 12.0823 19.1494 12.0059L19 12V16Z" fill="#191919"/>
</svg>
