<svg width="24" height="24" viewBox="0 0 24 24" fill="none" xmlns="http://www.w3.org/2000/svg">
<path d="M7 20H5C2.79086 20 1 18.2091 1 16C1 13.7909 2.79086 12 5 12H7V20ZM12 4C15.7792 4 18.8688 6.9269 18.9961 10.5977L19 10.833V12C21.2091 12 23 13.7909 23 16C23 18.2091 21.2091 20 19 20H17V10.833C16.9998 8.17018 14.7675 6 12 6C9.52766 6 7.48348 7.73212 7.0752 10H5.05371C5.47512 6.6144 8.42839 4 12 4ZM4.85059 14.0059C3.81581 14.0823 3 14.9457 3 16C3 17.0543 3.81581 17.9177 4.85059 17.9941L5 18V14L4.85059 14.0059ZM19 18L19.1494 17.9941C20.1842 17.9177 21 17.0543 21 16C21 14.9457 20.1842 14.0823 19.1494 14.0059L19 14V18Z" fill="#191919"/>
</svg>
