<svg width="24" height="24" viewBox="0 0 24 24" fill="none" xmlns="http://www.w3.org/2000/svg">
<path d="M11 2C14.8653 2 18 5.13472 18 9C18 11.2315 16.9819 13.2462 15.2363 14.5732L14.7939 14.8955C13.8008 15.6426 13.2853 16.4023 13.0312 17.4619L12.9297 17.9326C12.3819 20.2969 10.7535 22 8.5 22C6.08575 22 4.11553 20.0988 4.00488 17.7119L4 17.5V13H6V17.5C6 18.8807 7.11928 20 8.5 20C9.68063 20 10.6103 19.0382 10.9727 17.5176L11.0791 17.0293C11.4414 15.4881 12.2244 14.325 13.5996 13.291L14.0625 12.9521C15.2929 11.9996 16 10.5841 16 9C16 6.23928 13.7607 4 11 4C8.31194 4 6.11848 6.12302 6.00488 8.7832L6 9V11H4V9C4 5.13472 7.13472 2 11 2ZM19.4912 3.61621C20.4597 5.33873 21 7.15878 21 9C21 10.7174 20.5306 12.4109 19.6797 14.0312L19.4912 14.377L17.748 13.3975C18.5589 11.9553 19 10.4716 19 9C19 7.64018 18.6233 6.26557 17.9287 4.92969L17.748 4.59668L19.4912 3.61621ZM11 6.09961C12.6016 6.09961 13.9004 7.39837 13.9004 9C13.9004 10.6016 12.6016 11.9004 11 11.9004C9.39837 11.9004 8.09961 10.6016 8.09961 9C8.09961 7.39837 9.39837 6.09961 11 6.09961ZM11 7.90039C10.3925 7.90039 9.90039 8.39249 9.90039 9C9.90039 9.60751 10.3925 10.0996 11 10.0996C11.6075 10.0996 12.0996 9.60751 12.0996 9C12.0996 8.39249 11.6075 7.90039 11 7.90039Z" fill="#191919"/>
</svg>
