<svg width="24" height="24" viewBox="0 0 24 24" fill="none" xmlns="http://www.w3.org/2000/svg">
<path d="M21.1921 21.1924L19.7781 22.6064L13.4802 16.3086C13.279 16.6569 13.1343 17.0351 13.032 17.4619L12.9294 17.9326C12.3817 20.2968 10.7532 22 8.49976 22C6.08557 21.9999 4.11528 20.0988 4.00464 17.7119L3.99976 17.5V13H5.99976V17.5C5.99976 18.8807 7.11911 19.9999 8.49976 20C9.68043 20 10.6111 19.0383 10.9734 17.5176L11.0789 17.0293C11.2706 16.2133 11.5799 15.5032 12.033 14.8623L6.00366 8.83105L5.99976 9V11H3.99976V9C3.99976 8.3383 4.09175 7.69764 4.26343 7.09082L1.39331 4.22168L2.80737 2.80762L21.1921 21.1924ZM19.4919 3.61621C20.4603 5.33867 20.9998 7.15886 20.9998 9C20.9998 10.7174 20.5304 12.4109 19.6794 14.0312L19.4919 14.377L17.7478 13.3975C18.5587 11.9553 18.9998 10.4716 18.9998 9C18.9998 7.64016 18.6231 6.26559 17.9285 4.92969L17.7478 4.59668L19.4919 3.61621ZM10.9998 2C14.865 2 17.9998 5.13472 17.9998 9C17.9998 10.7031 17.4063 12.2794 16.3494 13.5205L14.9294 12.1006C15.6191 11.2357 15.9998 10.1632 15.9998 9C15.9998 6.23928 13.7605 4 10.9998 4C9.83036 4.00004 8.75478 4.40216 7.90308 5.0752L6.4812 3.6543C7.70064 2.6224 9.27765 2.00004 10.9998 2ZM10.9998 6.09961C12.6014 6.09961 13.9001 7.39837 13.9001 9C13.9001 9.58879 13.7241 10.1364 13.4226 10.5938L12.072 9.24512C12.09 9.16629 12.1003 9.08426 12.1003 9C12.1003 8.39249 11.6073 7.90039 10.9998 7.90039C10.9159 7.9004 10.8341 7.90898 10.7556 7.92676L9.40503 6.57812C9.8626 6.2762 10.4105 6.09964 10.9998 6.09961Z" fill="#191919"/>
</svg>
