<svg width="24" height="24" viewBox="0 0 24 24" fill="none" xmlns="http://www.w3.org/2000/svg">
<path d="M21 21H3V19H19V5H5V17H3V3H21V21ZM13 17H11V15H13V17ZM12 7C13.6569 7 15 8.34315 15 10C15 10.897 14.6785 11.5386 14.0596 12.2129L13.8838 12.3965L13.4902 12.7959C13.1885 13.1237 13.0394 13.4467 13.0068 13.8311L13 14H11C11 13.035 11.3352 12.1837 12.0186 11.4414L12.3535 11.0986L12.4707 10.9814C12.8634 10.5809 13 10.338 13 10C13 9.44772 12.5523 9 12 9C11.4872 9 11.0646 9.38645 11.0068 9.88379L11 10H9C9 8.34315 10.3431 7 12 7Z" fill="#191919"/>
</svg>
