<svg width="24" height="24" viewBox="0 0 24 24" fill="none" xmlns="http://www.w3.org/2000/svg">
<path d="M12 2C17.5228 2 22 6.47715 22 12C22 17.5228 17.5228 22 12 22C7.5084 22 3.70877 19.0386 2.44629 14.9619L2.36719 14.6943L4.29395 14.1553C5.23489 17.5266 8.32849 20 12 20C16.4183 20 20 16.4183 20 12C20 7.58172 16.4183 4 12 4C9.03867 4 6.45348 5.6095 5.07031 8.00098L8 8V10H2V4H4L3.99902 6C5.82345 3.57122 8.72845 2 12 2ZM12.9004 11.0996H17V12.9004H11.0996V6H12.9004V11.0996Z" fill="#191919"/>
</svg>
