<svg width="24" height="24" viewBox="0 0 24 24" fill="none" xmlns="http://www.w3.org/2000/svg">
<path d="M12 2C17.5228 2 22 6.47715 22 12C22 17.5228 17.5228 22 12 22C7.16209 22 3.12675 18.5645 2.2002 14H7.15527C7.05215 13.3456 7 12.6789 7 12C7 11.3211 7.05215 10.6544 7.15527 10H4.25195C4.08743 10.6392 4 11.3094 4 12H2C2 6.47715 6.47715 2 12 2ZM5.07324 16C6.04911 17.6863 7.62121 18.9827 9.50293 19.6006C8.68164 18.4524 8.06134 17.2515 7.64355 16H5.07324ZM16.3564 16C15.9386 17.2517 15.3176 18.4523 14.4961 19.6006C16.3782 18.9829 17.9507 17.6865 18.9268 16H16.3564ZM9.77734 16C10.2758 17.2287 11.0141 18.4055 12 19.5332C12.9859 18.4055 13.7242 17.2287 14.2227 16H9.77734ZM9.1875 10C9.06421 10.6527 9 11.3188 9 12C9 12.6812 9.06421 13.3473 9.1875 14H14.8125C14.9358 13.3473 15 12.6812 15 12C15 11.3188 14.9358 10.6527 14.8125 10H9.1875ZM16.8447 10C16.9478 10.6544 17 11.3211 17 12C17 12.6789 16.9478 13.3456 16.8447 14H19.748C19.9126 13.3608 20 12.6906 20 12C20 11.3094 19.9126 10.6392 19.748 10H16.8447ZM9.50684 4.39746C7.6233 5.01477 6.04982 6.31252 5.07324 8H7.64355C8.06172 6.74737 8.68443 5.54655 9.50684 4.39746ZM12 4.46875C11.0146 5.59612 10.2757 6.77172 9.77734 8H14.2227C13.7243 6.77172 12.9854 5.59612 12 4.46875ZM14.4922 4.39746C15.3148 5.54669 15.9382 6.7472 16.3564 8H18.9268C17.95 6.31226 16.3761 5.01465 14.4922 4.39746Z" fill="#191919"/>
</svg>
