<svg width="24" height="24" viewBox="0 0 24 24" fill="none" xmlns="http://www.w3.org/2000/svg">
<path d="M12.001 2C16.4199 2 20.0028 5.58214 20.0029 10.001C20.0029 12.813 17.5721 16.5858 12.7119 21.3193L12.001 22.0029L11.6416 21.6592L10.9473 20.9834L10.5869 20.623L12.0557 19.1553L12.0537 19.1543L12.2188 18.9902C16.0047 15.1455 17.904 12.1311 17.999 10.1553L18.0029 10.001C18.0028 6.6867 15.3153 4 12.001 4C8.68679 4.00014 6.00014 6.68679 6 10.001C6 11.7636 7.51704 14.4058 10.6152 17.7656L9.19922 19.1816C8.95794 18.921 8.72546 18.6632 8.50098 18.4092L7.97168 17.7979C7.54468 17.2943 7.15208 16.8044 6.79395 16.3281L6.38086 15.7627C4.79388 13.5284 4 11.6078 4 10.001C4.00014 5.58222 7.58222 2.00014 12.001 2ZM12.001 6C14.2107 6 16.0028 7.79127 16.0029 10.001C16.0029 12.2108 14.2108 14.0029 12.001 14.0029C9.79127 14.0028 8 12.2107 8 10.001C8.00014 7.79136 9.79136 6.00014 12.001 6ZM12.001 7.7998C10.7855 7.79994 9.79994 8.78547 9.7998 10.001C9.7998 11.2166 10.7854 12.202 12.001 12.2021C13.2167 12.2021 14.2021 11.2167 14.2021 10.001C14.202 8.78539 13.2166 7.7998 12.001 7.7998Z" fill="#191919"/>
</svg>
