<svg width="24" height="24" viewBox="0 0 24 24" fill="none" xmlns="http://www.w3.org/2000/svg">
<path d="M12.001 2C16.4199 2 20.0028 5.58214 20.0029 10.001C20.0029 12.813 17.5721 16.5858 12.7119 21.3193L12.001 22.0029L11.6416 21.6592L10.9473 20.9834C10.8253 20.8629 10.7066 20.7413 10.5879 20.6221L12.0557 19.1553L12.0547 19.1543L12.2188 18.9902C16.0047 15.1455 17.904 12.1311 17.999 10.1553L18.0029 10.001C18.0028 6.68671 15.3153 4 12.001 4C8.68679 4.00014 6.00014 6.68679 6 10.001C6 11.7637 7.51862 14.4046 10.6172 17.7646L9.20117 19.1807C8.95978 18.9198 8.72558 18.6634 8.50098 18.4092L7.97168 17.7979C7.54468 17.2943 7.15208 16.8044 6.79395 16.3281L6.38086 15.7627C4.79388 13.5284 4 11.6078 4 10.001C4.00014 5.58222 7.58222 2.00014 12.001 2ZM12.9004 9.09961H16V10.9004H12.9004V14H11.0996V10.9004H8V9.09961H11.0996V6H12.9004V9.09961Z" fill="#191919"/>
</svg>
