<svg width="24" height="24" viewBox="0 0 24 24" fill="none" xmlns="http://www.w3.org/2000/svg">
<path d="M21.8992 21.8994L20.4851 23.3135L15.5388 18.3672C14.7116 19.3059 13.7689 20.2897 12.7117 21.3193L12.0007 22.0029L11.6414 21.6592L10.947 20.9834L10.5867 20.623L12.0554 19.1553L12.0544 19.1543L12.2185 18.9902C12.917 18.2809 13.5512 17.5997 14.1218 16.9482L11.0623 13.8916C9.60646 13.5415 8.46095 12.3954 8.11108 10.9395L6.09644 8.9248C6.0332 9.27396 5.99977 9.6336 5.99976 10.001C5.99976 11.7636 7.5168 14.4058 10.615 17.7656L9.19995 19.1816C8.95861 18.9209 8.72527 18.6633 8.50073 18.4092L7.97144 17.7979C7.54447 17.2943 7.15181 16.8044 6.7937 16.3281L6.38062 15.7627C4.79369 13.5285 3.99976 11.6078 3.99976 10.001C3.99979 9.052 4.16526 8.14148 4.46851 7.29688L0.686279 3.51465L2.10034 2.10059L21.8992 21.8994ZM12.0007 2C16.4196 2 20.0025 5.58214 20.0027 10.001C20.0027 11.4683 19.3407 13.1979 18.0173 15.1885L16.574 13.7451C17.4807 12.3194 17.9526 11.1149 17.9988 10.1553L18.0027 10.001C18.0025 6.6867 15.315 4 12.0007 4C10.5548 4.00012 9.22816 4.51142 8.19214 5.36328L6.77222 3.94531C8.1745 2.73347 10.002 2.00012 12.0007 2ZM12.0007 6C14.2105 6 16.0025 7.79127 16.0027 10.001C16.0027 10.8945 15.7096 11.7198 15.2146 12.3857L13.9158 11.0879C14.0981 10.7673 14.2029 10.3962 14.2029 10.001C14.2027 8.78539 13.2164 7.7998 12.0007 7.7998C11.6055 7.79989 11.2344 7.90443 10.9138 8.08691L9.61597 6.78809C10.2818 6.29308 11.1073 6.00011 12.0007 6Z" fill="#191919"/>
</svg>
