<svg width="24" height="24" viewBox="0 0 24 24" fill="none" xmlns="http://www.w3.org/2000/svg">
<path d="M17 1C20.3136 1 22.9999 3.68627 23 7C23 8.27505 22.3334 9.81339 21.001 11.6152L21 21H3V19H9.09961V10.9004H5V17H3V3H12.5283C13.627 1.77264 15.2231 1 17 1ZM10.9004 19H19L19.002 13.9912C18.4022 14.6342 17.7348 15.3037 17 16C14.997 14.1018 13.4951 12.402 12.4951 10.9004H10.9004V19ZM17 3C14.7909 3 13.0001 4.79083 13 7C13 8.09926 13.9552 9.81882 15.917 12.0283L16.4072 12.5684L16.667 12.8447L17 13.1914L17.0635 13.126C17.2465 12.9367 17.4237 12.7506 17.5938 12.5674L18.084 12.0273C19.969 9.90411 20.9248 8.23333 20.9961 7.13086L21 7C20.9999 4.79083 19.2091 3 17 3ZM17 4.5C18.3807 4.5 19.5 5.61929 19.5 7C19.5 8.38071 18.3807 9.5 17 9.5C15.6193 9.5 14.5 8.38071 14.5 7C14.5 5.61929 15.6193 4.5 17 4.5ZM5 9.09961L11.4951 9.10059C11.1649 8.33525 11 7.63477 11 7C11 6.29869 11.1207 5.62559 11.3418 5H5V9.09961ZM17 6.2998C16.6134 6.2998 16.2998 6.6134 16.2998 7C16.2998 7.3866 16.6134 7.7002 17 7.7002C17.3866 7.7002 17.7002 7.3866 17.7002 7C17.7002 6.6134 17.3866 6.2998 17 6.2998Z" fill="#191919"/>
</svg>
