<svg width="24" height="24" viewBox="0 0 24 24" fill="none" xmlns="http://www.w3.org/2000/svg">
<path d="M12 2C17.5228 2 22 6.47715 22 12C22 17.5228 17.5228 22 12 22H2V20L4 18.001C2.93269 16.5803 2.23516 14.8659 2.0498 13.001H4.06152C4.22085 14.28 4.68501 15.4867 5.41113 16.5381L5.59863 16.7998L6.6416 18.1875L4.82812 20H12C16.3349 20 19.8644 16.552 19.9961 12.249L20 12C20 7.58172 16.4183 4 12 4C7.92037 4 4.5536 7.05367 4.06152 11H2.0498C2.55158 5.94673 6.81469 2 12 2ZM9 13H7V11H9V13ZM13 13H11V11H13V13ZM17 13H15V11H17V13Z" fill="#191919"/>
</svg>
