<svg width="24" height="24" viewBox="0 0 24 24" fill="none" xmlns="http://www.w3.org/2000/svg">
<path d="M5 10C5 13.866 8.13401 17 12 17C15.7855 17 18.8693 13.9948 18.9961 10.2402L19 10H21C21 14.6325 17.4998 18.4448 13 18.9424V20H16V22H8V20H11V18.9424C6.5865 18.4543 3.13468 14.7776 3.00391 10.2656L3 10H5ZM12 2C14.2091 2 16 3.79086 16 6V10C16 12.2091 14.2091 14 12 14C9.79086 14 8 12.2091 8 10H10C10 11.1046 10.8954 12 12 12C13.0543 12 13.9177 11.1842 13.9941 10.1494L14 10V6C14 4.89543 13.1046 4 12 4C10.9457 4 10.0823 4.81581 10.0059 5.85059L10 6V8H8V6C8 3.79086 9.79086 2 12 2Z" fill="#191919"/>
</svg>
