<svg width="24" height="24" viewBox="0 0 24 24" fill="none" xmlns="http://www.w3.org/2000/svg">
<path d="M21.8992 21.8994L20.4851 23.3135L15.4724 18.3008C14.6971 18.6253 13.8673 18.8465 12.9998 18.9424V20H15.9998V22H7.99976V20H10.9998V18.9424C6.58636 18.4542 3.13444 14.7775 3.00366 10.2656L2.99976 10H4.99976C4.99976 13.8659 8.13387 16.9999 11.9998 17C12.6607 17 13.2998 16.9056 13.906 16.7344L11.0583 13.8867C9.60503 13.5359 8.46099 12.3931 8.11108 10.9395L0.686279 3.51465L2.10034 2.10059L21.8992 21.8994ZM20.9998 10C20.9998 12.275 20.153 14.3493 18.7605 15.9326L17.3445 14.5166C18.328 13.3544 18.9408 11.8686 18.9958 10.2402L18.9998 10H20.9998ZM11.9998 2C14.2089 2 15.9998 3.79086 15.9998 6V10C15.9998 10.8934 15.7048 11.7164 15.2097 12.3818L13.7644 10.9365C13.891 10.6983 13.973 10.4326 13.9939 10.1494L13.9998 10V6C13.9998 4.89543 13.1043 4 11.9998 4C10.9456 4.00012 10.082 4.81589 10.0056 5.85059L9.99976 6V7.17188L8.07104 5.24316C8.42481 3.39596 10.0495 2.00011 11.9998 2Z" fill="#191919"/>
</svg>
