<svg width="24" height="24" viewBox="0 0 24 24" fill="none" xmlns="http://www.w3.org/2000/svg">
<path d="M22 17C22 19.2091 20.2091 21 18 21C15.7909 21 14 19.2091 14 17C14 14.7909 15.7909 13 18 13C18.7287 13 19.4116 13.1956 20 13.5361V9H10V17C10 19.2091 8.20914 21 6 21C4.13616 21 2.57001 19.7252 2.12598 18H4.26953C4.61546 18.5973 5.26007 19 6 19C7.10457 19 8 18.1046 8 17C8 15.8954 7.10457 15 6 15C5.26007 15 4.61546 15.4027 4.26953 16H2.12598C2.57001 14.2748 4.13616 13 6 13C6.72875 13 7.41156 13.1956 8 13.5361V3H22V17ZM18 15C16.8954 15 16 15.8954 16 17C16 18.1046 16.8954 19 18 19C19.1046 19 20 18.1046 20 17C20 15.8954 19.1046 15 18 15ZM10 7H20V5H10V7Z" fill="#191919"/>
</svg>
