<svg width="24" height="24" viewBox="0 0 24 24" fill="none" xmlns="http://www.w3.org/2000/svg">
<path d="M21.8992 21.8994L20.4851 23.3135L19.1716 22H3.99976V20.0029L6.99976 20.0039V20H17.1716L15.1716 18H8.00366V10.8311L5.99976 8.82715V18.0029H3.99976V7.58594L4.37866 7.20605L0.686279 3.51465L2.10034 2.10059L21.8992 21.8994ZM19.9998 17.1709L17.9998 15.1709V4H10.4138L8.61987 5.79297L7.20581 4.37891L9.58569 2H19.9998V17.1709ZM9.80347 16.2002H13.3708L9.80249 12.6299L9.80347 16.2002ZM16.0037 13.1748L14.2019 11.374L14.2029 10.7998H13.6287L11.8269 9H16.0037V13.1748Z" fill="#191919"/>
</svg>
