<svg width="24" height="24" viewBox="0 0 24 24" fill="none" xmlns="http://www.w3.org/2000/svg">
<path d="M12 1C13.1046 1 14 1.89543 14 3V3.25195C17.4503 4.14016 20 7.27245 20 11V20L15.874 20.001C15.4297 21.7257 13.8635 23 12 23C10.1499 23 8.58266 21.7402 8.12988 20H4V18H18V11C18 7.7616 15.4341 5.1222 12.2246 5.00391L12 5C8.7616 5 6.1222 7.5659 6.00391 10.7754L6 11V16H4V11C4 7.27209 6.5502 4.13981 10.001 3.25195L10 3C10 1.89543 10.8954 1 12 1ZM10.3125 20.0742C10.6129 20.5447 11.1046 20.8803 11.6758 20.9736L11.8496 20.9941L12 21C12.6443 21 13.2172 20.6948 13.583 20.2217L13.6777 20.0889L13.7314 20H10.2686L10.3125 20.0742ZM12.9004 11.0996H16V12.9004H12.9004V16H11.0996V12.8994L8 12.9004V11.0996L11.0996 11.0986V8H12.9004V11.0996Z" fill="#191919"/>
</svg>
