<svg width="24" height="24" viewBox="0 0 24 24" fill="none" xmlns="http://www.w3.org/2000/svg">
<path d="M21.8992 21.8994L20.4851 23.3135L17.1716 20L15.8738 20.001C15.4294 21.7257 13.8632 23 11.9998 23C10.1498 22.9999 8.58239 21.7401 8.12964 20H3.99976V18H15.1716L6.29858 9.12695C6.12727 9.6486 6.02481 10.2016 6.00366 10.7754L5.99976 11V16H3.99976V11C3.99976 9.78039 4.27432 8.62519 4.76245 7.59082L0.686279 3.51465L2.10034 2.10059L21.8992 21.8994ZM10.3123 20.0742C10.6126 20.5447 11.1044 20.8803 11.6755 20.9736L11.8494 20.9941L11.9998 21C12.644 21 13.217 20.6948 13.5828 20.2217L13.6775 20.0889L13.7312 20H10.2683L10.3123 20.0742ZM11.9998 1C13.1043 1 13.9998 1.89543 13.9998 3V3.25195C17.45 4.14016 19.9998 7.27245 19.9998 11V17.1719L17.9998 15.1719V11C17.9998 7.7616 15.4339 5.1222 12.2244 5.00391L11.9998 5C10.8108 5.00004 9.70252 5.3457 8.77026 5.94238L7.33276 4.50488C8.12587 3.93354 9.0268 3.50257 10.0007 3.25195L9.99976 3C9.99976 1.89551 10.8953 1.00013 11.9998 1Z" fill="#191919"/>
</svg>
