<svg width="24" height="24" viewBox="0 0 24 24" fill="none" xmlns="http://www.w3.org/2000/svg">
<path d="M11.9995 2C17.5224 2 21.9995 6.47715 21.9995 12C21.9995 17.5228 17.5224 22 11.9995 22C6.81435 21.9998 2.55103 18.0532 2.04932 13H4.06494C4.55719 16.946 7.92021 19.9998 11.9995 20C16.4178 20 19.9995 16.4183 19.9995 12C19.9995 7.58172 16.4178 4 11.9995 4C7.92021 4.00021 4.55719 7.05401 4.06494 11H2.04932C2.55103 5.94681 6.81435 2.00021 11.9995 2ZM10.9995 16H8.99951V8H10.9995V16ZM14.9995 16H12.9995V8H14.9995V16Z" fill="#191919"/>
</svg>
