<svg width="24" height="24" viewBox="0 0 24 24" fill="none" xmlns="http://www.w3.org/2000/svg">
<path d="M22 22H8V20H20V8H22V22ZM18 18H2V6H4V13.8379L7.33301 10.5049L9.11133 12.2832L12.667 8.72754L16 12.0605V4H2V2H18V18ZM9.11133 14.8281L7.33301 13.0498L4.38379 16H16V14.6064L12.666 11.2725L9.11133 14.8281ZM7.5 5C8.88071 5 10 6.11929 10 7.5C10 8.88071 8.88071 10 7.5 10C6.11929 10 5 8.88071 5 7.5C5 6.11929 6.11929 5 7.5 5ZM7.5 6.7998C7.1134 6.7998 6.7998 7.1134 6.7998 7.5C6.7998 7.8866 7.1134 8.2002 7.5 8.2002C7.8866 8.2002 8.2002 7.8866 8.2002 7.5C8.2002 7.1134 7.8866 6.7998 7.5 6.7998Z" fill="#191919"/>
</svg>
