<svg width="24" height="24" viewBox="0 0 24 24" fill="none" xmlns="http://www.w3.org/2000/svg">
<path d="M21.8992 21.8994L20.4851 23.3135L16.0642 18.8926C15.1453 19.4355 14.1079 19.7993 13.0007 19.9375L12.9998 22H10.9998V19.9385C7.13761 19.4568 4.13004 16.2217 4.00366 12.2598L3.99976 12V10H5.99976V12L6.00366 12.2246C6.1192 15.3595 8.6403 17.8806 11.7751 17.9961L11.9998 18L12.2253 17.9961C13.0686 17.965 13.8672 17.7593 14.5867 17.415L5.17261 8H3.99976V6.82715L0.686279 3.51465L2.10034 2.10059L21.8992 21.8994ZM9.99976 6H13.9998V2H15.9998V6H19.9998V12C19.9998 13.4835 19.596 14.8725 18.8923 16.0635L17.4158 14.5859C17.7599 13.8666 17.9648 13.0676 17.9958 12.2246L17.9998 12V8H10.8269L7.99976 5.17188V2H9.99976V6Z" fill="#191919"/>
</svg>
