<svg width="24" height="24" viewBox="0 0 24 24" fill="none" xmlns="http://www.w3.org/2000/svg">
<path d="M10.0002 2C14.4184 2.0002 18.0002 5.58184 18.0002 10C18.0002 11.8485 17.3705 13.5487 16.3176 14.9033L21.7786 20.3643L20.3645 21.7783L14.9036 16.3174C13.549 17.3703 11.8487 17.9999 10.0002 18C5.92075 18 2.55695 14.9461 2.0647 11H4.08423C4.5604 13.8376 7.02733 16 10.0002 16C13.3138 15.9998 16.0002 13.3136 16.0002 10C16.0002 6.68641 13.3138 4.0002 10.0002 4C7.02733 4 4.5604 6.1624 4.08423 9H2.0647C2.55695 5.05386 5.92075 2 10.0002 2Z" fill="#191919"/>
</svg>
