<svg width="24" height="24" viewBox="0 0 24 24" fill="none" xmlns="http://www.w3.org/2000/svg">
<path d="M21 4.30701V10.4564C20.9998 15.7827 17.8303 20.5833 12.9561 22.6918L12.6553 22.8177L12.0068 23.0707L11.6484 22.9359C6.54641 21.0224 3.1333 16.202 3.00391 10.7758L3 10.4564V4.30701L12 0.932007L21 4.30701ZM5 5.69275V10.4564C5.00016 14.8707 7.56028 18.8525 11.5059 20.7074L11.7832 20.8334L11.999 20.9242L12.2012 20.8402C16.1313 19.1271 18.7531 15.3381 18.9834 11.0687L18.9961 10.7631L19 10.4564V5.69275L12 3.06775L5 5.69275ZM17.6572 9.09607L10.5859 16.1674L6.34277 11.9242L7.75781 10.5101L10.5859 13.3383L16.2422 7.68201L17.6572 9.09607Z" fill="#191919"/>
</svg>
