<svg width="24" height="24" viewBox="0 0 24 24" fill="none" xmlns="http://www.w3.org/2000/svg">
<path d="M19.1306 4.56885L18.8894 5.33447C18.6252 6.17418 18.718 7.08457 19.1667 7.86182C19.5811 8.57944 20.2454 9.09133 21.0212 9.31592L21.2175 9.36572L22.0007 9.53955V14.4595L21.2175 14.6333C20.358 14.8242 19.6156 15.3599 19.1667 16.1372C18.7554 16.8497 18.6431 17.6743 18.8308 18.4536L18.8894 18.6655L19.1306 19.4302L14.8699 21.8901L14.3279 21.2993C13.7328 20.6505 12.8973 20.2749 11.9998 20.2749C11.1712 20.2749 10.3956 20.5943 9.81323 21.1538L9.67163 21.2993L9.12964 21.8901L4.8689 19.4302L5.11011 18.6655C5.3745 17.8257 5.28157 16.9146 4.83276 16.1372C4.41845 15.4197 3.75402 14.9087 2.97827 14.6841L2.78198 14.6333L1.99878 14.4595V12.9995H4.18726L4.41675 13.1079C5.14647 13.4743 5.78425 14.0128 6.27319 14.688L6.4314 14.9175L6.56519 15.1372C7.06843 16.0088 7.29685 16.9869 7.25073 17.9575L7.23218 18.2212L7.19995 18.4673L8.79761 19.3892L8.94507 19.2769C9.67691 18.7381 10.5433 18.3976 11.4646 18.3022L11.7429 18.2817L11.9998 18.2749C13.0259 18.2749 14.005 18.5767 14.8328 19.1216L15.0544 19.2769L15.2009 19.3892L16.7976 18.4673L16.7673 18.2212C16.6809 17.3497 16.8179 16.464 17.1765 15.647L17.3044 15.3774L17.4343 15.1372C17.9475 14.2484 18.6989 13.5513 19.5847 13.1069L19.8298 12.9927L19.9998 12.9224V11.0757L19.8298 11.0073C18.9973 10.643 18.2696 10.0621 17.7263 9.31201L17.5681 9.08154L17.4343 8.86182C16.9312 7.99027 16.7027 7.01298 16.7488 6.04248L16.7673 5.77783L16.7976 5.53076L15.2 4.60889L15.0535 4.72314C14.1815 5.36485 13.1189 5.72412 11.9998 5.72412C10.9738 5.72412 9.99538 5.42209 9.16772 4.87744L8.94604 4.72314L8.79761 4.60889L7.19995 5.53076L7.23218 5.77783C7.31868 6.64942 7.18162 7.53493 6.823 8.35205L6.69507 8.62158L6.56519 8.86182C6.05205 9.7506 5.30065 10.4477 4.41479 10.8921L4.18237 10.9995H1.99878V9.53955L2.78198 9.36572C3.64153 9.17481 4.38393 8.63922 4.83276 7.86182C5.24417 7.14924 5.35653 6.32477 5.1687 5.54541L5.11011 5.33447L4.8689 4.56885L9.13062 2.10986L9.67261 2.70068C10.2677 3.34924 11.1024 3.72412 11.9998 3.72412C12.8281 3.72412 13.6029 3.4045 14.1853 2.84521L14.3269 2.70068L14.8689 2.10986L19.1306 4.56885ZM11.9998 6.99951C14.761 6.99951 16.9995 9.2383 16.9998 11.9995C16.9998 14.7609 14.7612 16.9995 11.9998 16.9995C9.23848 16.9993 6.99976 14.7608 6.99976 11.9995C7.00001 9.23841 9.23864 6.99969 11.9998 6.99951ZM11.9998 8.80029C10.2327 8.80047 8.80079 10.2325 8.80054 11.9995C8.80054 13.7667 10.2326 15.1995 11.9998 15.1997C13.7671 15.1997 15.2 13.7668 15.2 11.9995C15.1997 10.2324 13.7669 8.80029 11.9998 8.80029Z" fill="#191919"/>
</svg>
