<svg width="24" height="24" viewBox="0 0 24 24" fill="none" xmlns="http://www.w3.org/2000/svg">
<path d="M12 2C14.2091 2 16 3.79086 16 6H19.5L21 22H3L3.18848 20H18.8037L17.6787 8H6.32227L5.38379 18H3.375L4.5 6H8C8 3.79086 9.79086 2 12 2ZM10 9C10 10.1046 10.8954 11 12 11C13.0543 11 13.9177 10.1842 13.9941 9.14941L14 9H16C16 11.2091 14.2091 13 12 13C9.8578 13 8.10891 11.3156 8.00488 9.19922L8 9H10ZM12 4C10.9457 4 10.0823 4.81581 10.0059 5.85059L10 6H14C14 4.9457 13.1842 4.08229 12.1494 4.00586L12 4Z" fill="#191919"/>
</svg>
