<svg width="24" height="24" viewBox="0 0 24 24" fill="none" xmlns="http://www.w3.org/2000/svg">
<path d="M22 7L18.5352 10.4648L17.2627 9.19238L18.4541 8L16.4141 8.00098L12.4141 12L16.415 16H18.4541L17.2627 14.8076L18.5352 13.5352L22 17L18.5352 20.4648L17.2627 19.1924L18.4541 18H15.5859L11 13.4141L6.41406 18H2V16L5.58398 16.001L9.58496 12L9.58301 11.998L10.998 10.583L11 10.585L15.5859 6H18.4541L17.2627 4.80762L18.5352 3.53516L22 7ZM9.58398 9.16895L8.16895 10.584L5.58496 8H2V6H6.41406L9.58398 9.16895Z" fill="#191919"/>
</svg>
