<svg width="24" height="24" viewBox="0 0 24 24" fill="none" xmlns="http://www.w3.org/2000/svg">
<path d="M8 16L5.06934 15.999C6.45246 18.3907 9.03854 20 12 20C15.6712 20 18.7648 17.5271 19.7061 14.1562L21.6328 14.6943C20.4566 18.9084 16.5893 22 12 22C8.72848 22 5.82345 20.4287 3.99902 18L4 20H2V14H8V16ZM12 2C15.2715 2 18.1766 3.57122 20.001 6L20 4H22V10H16V8H18.9297C17.5464 5.60889 14.9611 4 12 4C8.41834 4 5.386 6.35359 4.36621 9.59863L4.29395 9.84375L2.36719 9.30469C3.54378 5.09113 7.41106 2 12 2Z" fill="#191919"/>
</svg>
