<svg width="24" height="24" viewBox="0 0 24 24" fill="none" xmlns="http://www.w3.org/2000/svg">
<path d="M21.9028 21.8994L20.4888 23.3135L17.5181 20.3428C15.9372 21.3898 14.0416 22 12.0034 22C8.732 21.9999 5.8278 20.4287 4.00342 18V20H2.00342V14H8.00342V16L5.07373 15.999C6.45682 18.3906 9.04205 19.9999 12.0034 20C13.4867 20 14.8761 19.596 16.0669 18.8926L5.11084 7.93652C4.80411 8.45571 4.55475 9.01272 4.37061 9.59863L4.29736 9.84375L2.37158 9.30469C2.65471 8.29077 3.09338 7.34184 3.66064 6.48535L0.689941 3.51465L2.104 2.10059L21.9028 21.8994ZM21.6362 14.6943C21.3532 15.7085 20.9145 16.658 20.3472 17.5146L18.896 16.0645C19.2455 15.4731 19.5206 14.8327 19.7095 14.1562L21.6362 14.6943ZM12.0034 2C15.275 2 18.18 3.57122 20.0044 6L20.0034 4H22.0034V10H16.0034V8H18.9331C17.5498 5.60889 14.9645 4 12.0034 4C10.52 4.00004 9.13085 4.40377 7.93994 5.10742L6.48877 3.65723C8.06963 2.61012 9.96523 2.00005 12.0034 2Z" fill="#191919"/>
</svg>
