<svg width="24" height="24" viewBox="0 0 24 24" fill="none" xmlns="http://www.w3.org/2000/svg">
<path d="M11.9995 2C17.5224 2 21.9995 6.47715 21.9995 12C21.9995 17.5228 17.5224 22 11.9995 22C6.81473 21.9998 2.55154 18.0536 2.04932 13.001H4.06201C4.55453 16.9467 7.92042 19.9998 11.9995 20C16.4178 20 19.9995 16.4183 19.9995 12C19.9995 7.58172 16.4178 4 11.9995 4C7.92009 4.00021 4.5541 7.05383 4.06201 11H2.04932C2.55107 5.94686 6.81439 2.00021 11.9995 2ZM12.7974 11.1992L16.9976 11.2002V13H10.9976V6H12.7974V11.1992Z" fill="#191919"/>
</svg>
