<svg width="24" height="24" viewBox="0 0 24 24" fill="none" xmlns="http://www.w3.org/2000/svg">
<path d="M13.9497 4.05025C15.9172 6.01767 16.4686 8.86483 15.6042 11.3254L22.8032 18.5252L18.5606 22.7678L17.146 21.353L19.974 18.525L13.3001 11.8498L13.7172 10.6625C14.324 8.93543 13.9447 7.00684 12.7024 5.63956L12.5355 5.46447C11.3974 4.32634 9.83273 3.84448 8.33532 4.04328L8.293 4.05L11.8282 7.58603L7.58579 11.8284L4.05 8.292L4.04334 8.33487C3.85434 9.75754 4.27974 11.241 5.29866 12.3617L5.46447 12.5355C6.79102 13.8621 8.72033 14.3181 10.472 13.7799L10.6994 13.7041L11.8936 13.2739L17.145 18.525L15.732 19.939L11.3772 15.5858C8.90484 16.4763 6.03147 15.931 4.05025 13.9497C1.55666 11.4562 1.33767 7.54931 3.39327 4.80749L7.58579 9L9 7.58579L4.8083 3.39266C7.55008 1.33771 11.4564 1.55691 13.9497 4.05025Z" fill="#191919"/>
</svg>
