<svg width="24" height="24" viewBox="0 0 24 24" fill="none" xmlns="http://www.w3.org/2000/svg">
<path d="M21.9028 21.8994L20.4888 23.3135L17.5181 20.3428C15.9372 21.3898 14.0416 22 12.0034 22C6.48068 21.9999 2.00342 17.5228 2.00342 12C2.00342 9.962 2.61376 8.06614 3.66064 6.48535L0.689941 3.51465L2.104 2.10059L21.9028 21.8994ZM5.11084 7.93652C4.40726 9.12743 4.00342 10.5166 4.00342 12C4.00342 16.4182 7.58525 19.9999 12.0034 20C13.4868 20 14.876 19.5961 16.0669 18.8926L5.11084 7.93652ZM21.6362 14.6943C21.3532 15.7085 20.9145 16.658 20.3472 17.5146L18.896 16.0645C19.2456 15.4729 19.5216 14.832 19.7104 14.1553L21.6362 14.6943ZM12.0034 2C15.2754 2 18.181 3.57163 20.0054 6.00098L20.0034 4H22.0034V10H16.0034V8L18.9341 8.00098C17.5509 5.6095 14.9648 4 12.0034 4C10.52 4.00004 9.13085 4.40377 7.93994 5.10742L6.48779 3.65723C8.06878 2.60985 9.96495 2.00005 12.0034 2Z" fill="#191919"/>
</svg>
