<svg width="24" height="24" viewBox="0 0 24 24" fill="none" xmlns="http://www.w3.org/2000/svg">
<path d="M17 11C20.3137 11 23 13.6863 23 17C23 20.3137 20.3137 23 17 23C15.7737 23 14.6337 22.6315 13.6836 22H4V20H7V19.999H11.8037C11.2933 19.1166 11 18.0927 11 17C11 15.4734 11.5708 14.0805 12.5098 13.0215C12.4153 13.0135 12.3203 13.0074 12.2246 13.0039L12 13C9.02724 13 6.56135 15.1626 6.08496 18H4.06445C4.55669 14.0538 7.92049 11 12 11C12.9422 11 13.8461 11.1637 14.6855 11.4629C15.3978 11.1648 16.1796 11 17 11ZM17 12.7998C14.6804 12.7998 12.7998 14.6804 12.7998 17C12.7998 19.3196 14.6804 21.2002 17 21.2002C19.3196 21.2002 21.2002 19.3196 21.2002 17C21.2002 14.6804 19.3196 12.7998 17 12.7998ZM17.9004 16.0996H20V17.9004H17.9004V20H16.0996V17.9004H14V16.0996H16.0996V14H17.9004V16.0996ZM12 2C14.2091 2 16 3.79086 16 6C16 8.20914 14.2091 10 12 10C9.79086 10 8 8.20914 8 6C8 3.79086 9.79086 2 12 2ZM12 4C10.8954 4 10 4.89543 10 6C10 7.10457 10.8954 8 12 8C13.1046 8 14 7.10457 14 6C14 4.89543 13.1046 4 12 4Z" fill="#191919"/>
</svg>
