<svg width="24" height="24" viewBox="0 0 24 24" fill="none" xmlns="http://www.w3.org/2000/svg">
<path d="M12 11C16.4183 11 20 14.5817 20 19V22H4V20H18V19C18 15.7616 15.4341 13.1222 12.2246 13.0039L12 13C9.02701 13 6.55909 15.1623 6.08301 18H4.06152C4.5536 14.0537 7.92037 11 12 11ZM12 2C14.2091 2 16 3.79086 16 6C16 8.20914 14.2091 10 12 10C9.79086 10 8 8.20914 8 6C8 3.79086 9.79086 2 12 2ZM12 4C10.8954 4 10 4.89543 10 6C10 7.10457 10.8954 8 12 8C13.1046 8 14 7.10457 14 6C14 4.89543 13.1046 4 12 4Z" fill="#191919"/>
</svg>
