<svg width="24" height="24" viewBox="0 0 24 24" fill="none" xmlns="http://www.w3.org/2000/svg">
<path d="M17 11C20.3137 11 23 13.6863 23 17C23 20.3137 20.3137 23 17 23C15.7739 23 14.6336 22.6322 13.6836 22.001L4 22V20H11.8027C11.2922 19.1175 11 18.0928 11 17C11 15.4741 11.5696 14.0813 12.5078 13.0225C12.4147 13.0137 12.3198 13.0074 12.2246 13.0039L12 13C9.02701 13 6.55909 15.1623 6.08301 18H4.06152C4.5536 14.0537 7.92037 11 12 11C12.9424 11 13.8469 11.1626 14.6865 11.4619C15.3981 11.1641 16.1799 11 17 11ZM17 12.7998C14.6804 12.7998 12.7998 14.6804 12.7998 17C12.7998 19.3196 14.6804 21.2002 17 21.2002C19.3196 21.2002 21.2002 19.3196 21.2002 17C21.2002 14.6804 19.3196 12.7998 17 12.7998ZM20 17.9004H14V16.0996H20V17.9004ZM12 2C14.2091 2 16 3.79086 16 6C16 8.20914 14.2091 10 12 10C9.79086 10 8 8.20914 8 6C8 3.79086 9.79086 2 12 2ZM12 4C10.8954 4 10 4.89543 10 6C10 7.10457 10.8954 8 12 8C13.1046 8 14 7.10457 14 6C14 4.89543 13.1046 4 12 4Z" fill="#191919"/>
</svg>
