<svg width="24" height="24" viewBox="0 0 24 24" fill="none" xmlns="http://www.w3.org/2000/svg">
<path d="M12 5C16.2865 5 19.567 7.11539 21.7305 11.2324L21.8945 11.5537L22.1182 12L21.8945 12.4463C19.7344 16.7743 16.3965 19 12 19C7.79572 19 4.55949 16.9648 2.39551 13.002L4.72461 13.001C6.37954 15.5081 8.57571 16.8142 11.373 16.9814L11.6836 16.9951L12 17C15.2919 17 17.7953 15.5248 19.6006 12.4814L19.7734 12.1816L19.8721 12L19.7734 11.8184C18.0699 8.77497 15.7147 7.20314 12.627 7.01855L12.3164 7.00488L12 7C8.90105 7.00003 6.50136 8.30779 4.72461 11L2.39453 10.999C4.55851 7.03543 7.79531 5.00003 12 5ZM12 8.00195C14.2081 8.00195 15.998 9.79193 15.998 12C15.998 14.2081 14.2081 15.998 12 15.998C9.79197 15.998 8.00195 14.208 8.00195 12C8.00195 9.79196 9.79197 8.002 12 8.00195ZM12 10.002C10.8965 10.002 10.002 10.8965 10.002 12C10.002 13.1035 10.8965 13.998 12 13.998C13.1035 13.998 13.998 13.1035 13.998 12C13.998 10.8965 13.1035 10.002 12 10.002Z" fill="#191919"/>
</svg>
