<svg width="24" height="24" viewBox="0 0 24 24" fill="none" xmlns="http://www.w3.org/2000/svg">
<path d="M2.10049 2.10052L17.5179 17.5179L21.8995 21.8995L20.4853 23.3137L15.5971 18.4271C14.4914 18.808 13.2914 19 12 19C7.79549 19 4.55897 16.9647 2.39497 13.0016L4.72477 13.0015C6.3797 15.5085 8.5753 16.8143 11.3726 16.9816L11.6839 16.9954L12 17C12.6927 17 13.3504 16.9347 13.9741 16.8032L13.0344 15.863C12.7044 15.9511 12.3577 15.9981 12 15.9981C9.79192 15.9981 8.00192 14.2081 8.00192 12C8.00192 11.6427 8.0488 11.2963 8.13675 10.9667L6.29615 9.12478C5.72598 9.65034 5.20246 10.2748 4.72412 10.9996L2.39443 10.9995C3.10831 9.69183 3.93894 8.59404 4.88256 7.70995L0.686279 3.51474L2.10049 2.10052ZM12 5.00002C16.2866 5.00002 19.567 7.11553 21.7305 11.2328L21.8947 11.5534L22.1176 12L21.8947 12.4466C21.119 14.0007 20.1915 15.2837 19.1176 16.29L17.7038 14.8753C18.4059 14.2281 19.0373 13.431 19.6007 12.4812L19.7732 12.1818L19.872 12L19.7732 11.8183C18.0697 8.77488 15.7151 7.20306 12.6273 7.01847L12.3161 7.00463L12 7.00002C11.307 7.00002 10.6489 7.0654 10.0249 7.19702L8.40197 5.5732C9.50793 5.19212 10.7083 5.00002 12 5.00002ZM12 8.00195C14.2081 8.00195 15.9981 9.79195 15.9981 12C15.9981 12.3573 15.9512 12.7037 15.8632 13.0333L10.9665 8.13682C11.2961 8.04885 11.6426 8.00195 12 8.00195Z" fill="#191919"/>
</svg>
