<svg width="24" height="24" viewBox="0 0 24 24" fill="none" xmlns="http://www.w3.org/2000/svg">
<path d="M17.9988 7C20.7593 7.00026 22.9968 9.23844 22.9968 11.999C22.9967 14.7595 20.7592 16.9968 17.9988 16.9971V17H6.00171V16.9971C3.58391 16.9971 1.56709 15.2808 1.10327 13H3.17749C3.59004 14.1631 4.6971 14.9971 6.00171 14.9971C7.65758 14.9968 8.99962 13.6549 8.99976 11.999C8.99976 10.343 7.65766 9.00026 6.00171 9C4.69623 9 3.5884 9.8355 3.17651 11H1.10229C1.56521 8.7179 3.58308 7 6.00171 7C8.76223 7.00026 10.9998 9.23844 10.9998 11.999C10.9997 13.1254 10.6264 14.1643 9.9978 15H14.0027C13.3739 14.1642 12.9998 13.1255 12.9998 11.999C12.9998 9.23844 15.2382 7.00025 17.9988 7ZM17.9988 9C16.3428 9.00025 14.9998 10.343 14.9998 11.999C14.9999 13.6549 16.3429 14.9968 17.9988 14.9971C19.6546 14.9968 20.9967 13.6549 20.9968 11.999C20.9968 10.343 19.6547 9.00026 17.9988 9Z" fill="#191919"/>
</svg>
