<svg width="24" height="24" viewBox="0 0 24 24" fill="none" xmlns="http://www.w3.org/2000/svg">
<path d="M12 20H10L6 16H2V14H5V13.999L6.82812 14L10 17.1709V6.82812L6.82812 10L4 9.99902V12H2V8H6L10 4H12V20ZM14 4C18.4183 4 22 7.58172 22 12C22 16.3349 18.552 19.8644 14.249 19.9961L14 20V18C17.3137 18 20 15.3137 20 12C20 8.7616 17.4341 6.1222 14.2246 6.00391L14 6V4ZM14 8C16.2091 8 18 9.79086 18 12C18 14.1422 16.3156 15.8911 14.1992 15.9951L14 16V14C15.1046 14 16 13.1046 16 12C16 10.9457 15.1842 10.0823 14.1494 10.0059L14 10V8Z" fill="#191919"/>
</svg>
