<svg width="24" height="24" viewBox="0 0 24 24" fill="none" xmlns="http://www.w3.org/2000/svg">
<path d="M21.8992 21.8994L20.4851 23.3134L16.7029 19.5322C15.9328 19.8085 15.1076 19.9698 14.2488 19.996L13.9998 19.9999V17.9999C14.3666 17.9999 14.7263 17.9673 15.075 17.9042L11.9998 14.8281V19.9999H9.99976L5.99976 15.9999H1.99976V13.9999H6.82886L9.99976 17.1708V12.8271L6.99976 9.82806L6.82886 9.99994L3.99976 9.99896V11.9999H1.99976V7.99994H5.17163L0.686279 3.51459L2.10034 2.10052L21.8992 21.8994ZM13.9998 3.99994C18.418 3.99994 21.9997 7.5817 21.9998 11.9999C21.9998 13.9981 21.2676 15.8254 20.0564 17.2275L18.6365 15.8085C19.4884 14.7726 19.9998 13.4459 19.9998 11.9999C19.9997 8.76171 17.4346 6.12234 14.2253 6.00385L13.9998 5.99994V3.99994ZM13.9998 7.99994C16.2089 7.99994 17.9997 9.79084 17.9998 11.9999C17.9998 12.8931 17.7074 13.718 17.2126 14.3837L15.7664 12.9384C15.9152 12.6586 15.9998 12.339 15.9998 11.9999C15.9997 10.9456 15.184 10.0821 14.1492 10.0058L13.9998 9.99994V7.99994ZM11.9998 9.17181L9.99976 7.17181V6.82806L9.8269 6.99994L8.41284 5.58588L9.99976 3.99994H11.9998V9.17181Z" fill="#191919"/>
</svg>
