<svg width="24" height="24" viewBox="0 0 24 24" fill="none" xmlns="http://www.w3.org/2000/svg">
<path d="M12.0005 16C13.1049 16.0002 14.0005 16.8956 14.0005 18C14.0005 19.1044 13.1049 19.9998 12.0005 20C10.8959 20 10.0005 19.1046 10.0005 18C10.0005 16.8954 10.8959 16 12.0005 16ZM11.9126 12C14.1937 12 16.178 13.2732 17.1929 15.1475L15.6821 16.6572C15.1534 15.1731 13.7723 14.0933 12.1284 14.0059L11.9126 14C10.3246 14.0001 8.95294 14.9256 8.30713 16.2666L8.22314 16.4521L6.73584 14.9648C7.73647 13.2617 9.5541 12.0964 11.6499 12.0059L11.9126 12ZM11.9126 8C15.2938 8 18.2834 9.67823 20.0933 12.2471L18.6519 13.6875C17.2787 11.5464 14.9133 10.102 12.2046 10.0049L11.9126 10C9.25475 10.0001 6.89956 11.2963 5.44482 13.291L5.28662 13.5156L3.85205 12.0811C5.61172 9.68877 8.41096 8.10759 11.5835 8.00488L11.9126 8ZM11.9126 4C16.3972 4 20.3894 6.10881 22.9517 9.38867L21.5249 10.8154C19.4026 7.9807 16.0559 6.1153 12.269 6.00488L11.9126 6C8.17369 6.0001 4.83401 7.71 2.6333 10.3906L2.42432 10.6533L1.00049 9.22852C3.49112 6.13392 7.27128 4.12063 11.5249 4.00488L11.9126 4Z" fill="#191919"/>
</svg>
