<svg width="24" height="24" viewBox="0 0 24 24" fill="none" xmlns="http://www.w3.org/2000/svg">
<path d="M20.4858 19.4855L19.0708 20.8995L12.1821 14.0099C12.1642 14.0087 12.1464 14.0069 12.1284 14.006L11.9126 14.0001C10.3246 14.0002 8.95294 14.9258 8.30713 16.2667L8.22314 16.4523L6.73584 14.965C7.5266 13.6191 8.82825 12.6114 10.3735 12.2023L8.80225 10.63C7.45519 11.1992 6.29555 12.1246 5.44482 13.2911L5.28662 13.5157L3.85205 12.0812C4.75638 10.8517 5.93531 9.83651 7.29834 9.1261L5.82666 7.65442C4.60731 8.37325 3.52672 9.3025 2.6333 10.3907L2.42432 10.6534L1.00049 9.22864C1.95184 8.04659 3.09138 7.02232 4.37354 6.20129L2.10107 3.92883L3.51514 2.51477L20.4858 19.4855ZM12.0005 16.0001C13.1049 16.0003 14.0005 16.8957 14.0005 18.0001C14.0005 19.1045 13.1049 19.9999 12.0005 20.0001C10.8959 20.0001 10.0005 19.1047 10.0005 18.0001C10.0005 16.8956 10.8959 16.0001 12.0005 16.0001ZM11.9126 8.00012C15.2938 8.00012 18.2834 9.67835 20.0933 12.2472L18.6519 13.6876C17.6186 12.0765 16.0236 10.8595 14.1431 10.3146L11.8296 8.0011L11.9126 8.00012ZM11.9126 4.00012C16.3972 4.00012 20.3894 6.10893 22.9517 9.38879L21.5249 10.8156C19.4026 7.98082 16.0559 6.11543 12.269 6.005L11.9126 6.00012C11.2563 6.00014 10.6126 6.05488 9.98486 6.15637L8.29932 4.47083C9.33241 4.19555 10.4124 4.03528 11.5249 4.005L11.9126 4.00012Z" fill="#191919"/>
</svg>
