<svg width="24" height="24" viewBox="0 0 24 24" fill="none" xmlns="http://www.w3.org/2000/svg">
<path d="M10.0002 2C14.4184 2.0002 18.0002 5.58184 18.0002 10C18.0002 11.8486 17.3726 13.5506 16.3196 14.9053L21.7776 20.3643L20.3635 21.7783L14.9045 16.3203C13.5501 17.3728 11.8483 17.9999 10.0002 18C5.92096 18 2.55429 14.9468 2.06177 11.001H4.08325C4.55975 13.8382 7.0276 16 10.0002 16C13.3138 15.9998 16.0002 13.3136 16.0002 10C16.0002 6.68641 13.3138 4.0002 10.0002 4C7.02727 4 4.55936 6.16232 4.08325 9H2.06177C2.55387 5.05369 5.92063 2 10.0002 2ZM14.0002 10.9004H6.00024V9.09961H14.0002V10.9004Z" fill="#191919"/>
</svg>
